<?xml version="1.0" encoding="utf-8"?>
<!-- Generator: Adobe Illustrator 21.0.0, SVG Export Plug-In . SVG Version: 6.00 Build 0)  -->
<svg version="1.1" id="Layer_1" xmlns="http://www.w3.org/2000/svg" xmlns:xlink="http://www.w3.org/1999/xlink" x="0px" y="0px"
	 viewBox="0 0 300 300" style="enable-background:new 0 0 300 300;" xml:space="preserve">
<style type="text/css">
	.st0{fill:#FFF927;}
	.st1{fill:#C5DA06;}
	.st2{fill:#FFD153;}
	.st3{fill:#6FCE32;}
	.st4{fill:#0ED8E2;}
	.st5{opacity:0.3;fill:#354252;enable-background:new    ;}
	.st6{fill:none;}
	.st7{fill:#EF6060;}
	.st8{fill:#FC9E22;}
	.st9{fill:#F77B2E;}
	.st10{fill:#FFFFFF;}
	.st11{opacity:0.2;}
	.st12{fill:#354252;}
	.st13{opacity:0.2;fill:#354252;enable-background:new    ;}
	.st14{fill:#E0E1E2;}
	.st15{fill:#D1D0B8;}
	.st16{opacity:0.1;enable-background:new    ;}
	.st17{fill:#12D3DD;}
	.st18{fill:#13B7B7;}
	.st19{opacity:0.5;}
	.st20{fill:#4CF2F2;}
	.st21{opacity:0.3;fill:#FFFFFF;enable-background:new    ;}
	.st22{opacity:0.5;fill:#FFFFFF;enable-background:new    ;}
	.st23{fill:#495663;}
	.st24{fill:#17AFAB;}
	.st25{fill:#45EFEF;}
	.st26{fill:#FF666E;}
	.st27{fill:#E5395B;}
	.st28{fill:#FF9FA8;}
	.st29{opacity:0.2;fill:#FFFFFF;enable-background:new    ;}
	.st30{opacity:0.4;fill:#FFFFFF;enable-background:new    ;}
	.st31{fill:#F7EA4D;}
	.st32{fill:#EFDB25;}
	.st33{fill:#F9F09D;}
	.st34{fill:#E2E2E2;}
	
		.st35{opacity:0.7;fill:none;stroke:#FFFFFF;stroke-width:1.3633;stroke-linecap:round;stroke-linejoin:round;stroke-miterlimit:10;enable-background:new    ;}
	.st36{fill:#6F828C;}
	.st37{fill:#495663;stroke:#495663;stroke-width:2.045;stroke-linecap:round;stroke-linejoin:round;stroke-miterlimit:10;}
	.st38{opacity:0.3;enable-background:new    ;}
	.st39{opacity:0.7;}
	.st40{opacity:0.1;}
</style>
<g>
	<path class="st0" d="M222.1,42.4l-23,42l0,0c13.1,7.1,23.4,17.3,30.8,29.1l40.8-25.1C259.1,69.8,242.7,53.7,222.1,42.4
		C222.1,42.5,222.1,42.4,222.1,42.4z"/>
	<path class="st1" d="M242.4,158.7l47.9,0.3c0.3-24.9-6.6-49.5-19.7-70.6l-40.8,25.1C238.2,127.1,242.6,142.8,242.4,158.7z"/>
	<path class="st2" d="M161.6,74.3c12.7,0.4,25.5,3.7,37.5,10.2l23-42c-18.9-10.3-39.2-15.5-59.3-16.1c-2.4-0.1-4.7,0-7.1,0l0.8,47.9
		C158.2,74.3,159.9,74.3,161.6,74.3z"/>
	<path class="st3" d="M232.3,197.3c0,0.1-0.1,0.2-0.1,0.2c-0.3,0.5-0.5,0.9-0.8,1.4l42,23c0.3-0.5,0.5-0.9,0.8-1.4
		c0.1-0.2,0.2-0.4,0.3-0.6c10.5-19.4,15.6-40.3,15.8-60.9l-47.9-0.3C242.2,171.8,239,185,232.3,197.3z"/>
	<path class="st4" d="M204.7,227.3l26.1,40.2c17.1-11.2,31.9-26.5,42.6-45.5l-42-23C224.7,210.8,215.4,220.3,204.7,227.3z"/>
</g>
<ellipse class="st5" cx="51.4" cy="233.6" rx="48.4" ry="1.6"/>
<path class="st6" d="M33.3,157.3h-5.4H33.3z"/>
<circle class="st7" cx="53.5" cy="141.3" r="1.7"/>
<path class="st8" d="M152.5,26.6c1-0.1,2.1-0.1,3.1-0.1v-0.1c-1,0-2,0-3.1-0.1C152.6,26.4,152.6,26.5,152.5,26.6z"/>
<circle class="st9" cx="38.4" cy="90.3" r="2.4"/>
<circle class="st7" cx="38" cy="111.5" r="1.3"/>
<path class="st9" d="M46.8,79.3c2.7,0.9,4.4-2.6,5.1-6.2c0.1-0.5,0.3-0.9,0.7-1.2c1-1,3.4-3,5.2-3.2c2.4-0.3,7-3.1,8.1-5.2
	c1.1-2.1-0.6-2.3-1.9-0.8c-1.3,1.5-1,2.8-4.9,3.8c-3.9,1.1-5.7,2.5-6.5,3.6s-4,3.8-5,3.9C45.5,74.4,43.9,78.4,46.8,79.3z"/>
<path class="st10" d="M57.2,157.5l7.8,0.1l0,0L57.2,157.5L57.2,157.5z"/>
<path class="st10" d="M55.3,157.5C55.4,157.5,55.4,157.5,55.3,157.5h-3.1l0,0H55.3z"/>
<path class="st10" d="M46.5,157.4L46.5,157.4l-13.2-0.1l0,0L46.5,157.4z"/>
<path class="st9" d="M84.8,51.6c0.5-1.1,0-1.6-0.6-1.5c-0.4,0-0.9,0.4-1.1,0.6c-1.1,0.8-2.1,1.6-3,2.3c-2.5,2-3.9,3.2-3.9,3.2
	s-4.5,5,0.3,4.7c0.6,0,1.2-0.3,1.7-0.6c0.7-0.5,1.9-1.3,3-1.5c1.9-0.3,3.7,0.8,2.8,2.6c-1.8,3.4-2.7,7.2-4.7,8.9s-7.1-0.5-6.9,7.7
	c0,1.7-0.3,3.1-0.8,4.2c-0.5,1.2-1.9,1.9-3,1.7c-3.9-0.6-0.8-8.8-0.3-9.9c0.4-1.1,3-6,0.8-7.2s-3.5,2.9-3.8,4.4
	c-0.4,1.5-1,7.3-1.2,11.1c-0.2,3.8-5.1,9.2-8.5,10.1c-2.7,0.8-6.2,3.3-8.5,5.7l26.6,14.7c0.2-4.7,1.8-12.9,6.4-18.6c1-1,2-2,3-2.9
	c0.5-0.3,0.9-0.7,1.4-1c3-1.8,4.6-4.6,8-7c2.7-2,5.3-7.6,7.6-8.4c3.2-1,4,0,4.1,0.6s-0.3,1.5-2.4,3.3c-2,1.7-5,4.6-3.7,6.3
	c2,2.5,6.8-0.9,8.6-5.9c0.1-0.4,0.7-1,1-1.4l-17-25.9C88.9,56.3,84,53.4,84.8,51.6z"/>
<path class="st7" d="M47.1,98l26.7,14.6l0,0L47.1,98L47.1,98z"/>
<path class="st7" d="M73.7,137c1.1-7.6,1-16.9,0.1-21.5c-0.1-0.6-0.2-1.6-0.1-2.8L47.1,98c-0.6,0.6-1.1,1.2-1.5,1.8
	c-1.9,2.7-3.3,9.8-3.4,13.2c-0.1,3.5-3,5.1-5.1,4.6c-2.2-0.5-2-5.7-1.3-8.6c0.7-2.8-1.8-8.1-4.2-11.3c-2.4-3.2-3-6.5-3-6.5
	c-0.2-0.8,0.1-1.9,0.5-3.1l0,0c1.2-3.5,3.6-7.6-0.6-6.6c-1.9,0.4-2.4,2.5-2.2,5c0,0,0,0,0,0.1c0.3,5.1,3.4,12.4,4.1,13.6
	c2.6,4.5,3.2,9.7,3.1,10.9c-0.2,1.4,0,8.5,3.5,16.7c3.2,7.5-1,17.9-1.6,19.3c-0.4,1-1.8,5.8-2,10.2l13.1,0.1c-0.5-0.6-1-1.4-1.6-2.1
	c-2.7-3.5,1.1-9.9,3.6-8.6c3,1.5,3.7,6.5,3.8,10.8h3.2c0.6-0.8,1-1.3,1-1.3s0.3,0.5,0.8,1.3l7.8,0.1c-1.2-6.5-3.9-24.2,0.4-39.5
	c0.9-1.3,1.5-0.1,1.1,2.5c-1.3,8.9-1.8,22.8,3.6,37l6.3-1.2C76.4,156.2,72.7,144.5,73.7,137z M53.5,143c-0.9,0-1.7-0.8-1.7-1.7
	s0.8-1.7,1.7-1.7s1.7,0.8,1.7,1.7S54.5,143,53.5,143z"/>
<path class="st10" d="M57.2,157.5L57.2,157.5h-1.9l0,0H57.2z"/>
<path class="st7" d="M56.4,156.2c0,0-0.4,0.5-1,1.3h1.9C56.7,156.7,56.4,156.2,56.4,156.2z"/>
<circle class="st9" cx="61.8" cy="39.5" r="2"/>
<path class="st9" d="M87.8,48.3c-0.6,0-1.1,0.5-1.1,1.1s0.5,1.1,1.1,1.1s1.1-0.5,1.1-1.1v-0.1l-0.5-0.8
	C88.1,48.4,87.9,48.3,87.8,48.3z"/>
<path class="st9" d="M88.3,48.4l0.5,0.8C88.8,48.9,88.6,48.6,88.3,48.4z"/>
<g class="st11">
	<circle class="st6" cx="53.5" cy="141.3" r="1.7"/>
	<path class="st7" d="M33.4,156.6c0-0.1,0-0.2,0-0.3C33.4,156.4,33.4,156.5,33.4,156.6z"/>
	<path class="st7" d="M33.5,154.9c0-0.1,0-0.1,0-0.2C33.5,154.8,33.5,154.9,33.5,154.9z"/>
	<path class="st7" d="M64.6,155.2L64.6,155.2L64.6,155.2z"/>
	<path class="st7" d="M69.3,155.1c-0.2-0.7-0.5-1.5-0.7-2.2C68.8,153.6,69,154.4,69.3,155.1z"/>
	<path class="st7" d="M64.8,156.4c0,0.1,0,0.2,0.1,0.3C64.8,156.6,64.8,156.5,64.8,156.4z"/>
	<path class="st7" d="M64.7,155.8c0,0.1,0,0.1,0,0.2C64.7,155.9,64.7,155.9,64.7,155.8z"/>
	<path class="st7" d="M64.9,157c0,0.1,0.1,0.3,0.1,0.4C65,157.3,64.9,157.2,64.9,157z"/>
	<path class="st7" d="M76.4,156.2L76.4,156.2L76.4,156.2z"/>
	<path class="st7" d="M70.1,157.4L70.1,157.4l4.2-0.8L70.1,157.4L70.1,157.4z"/>
	<path class="st7" d="M76.4,156L76.4,156L76.4,156z"/>
	<path class="st7" d="M76.4,156.1C76.4,156.2,76.4,156.2,76.4,156.1C76.4,156.2,76.4,156.1,76.4,156.1z"/>
	<path class="st7" d="M76.2,155.3L76.2,155.3L76.2,155.3z"/>
	<path class="st12" d="M76.2,155.3c0.1,0.3,0.2,0.5,0.2,0.7C76.3,155.8,76.2,155.6,76.2,155.3z"/>
	<path class="st12" d="M76.4,156.2L76.4,156.2L76.4,156.2z"/>
	<path class="st12" d="M68.6,152.9L68.6,152.9L68.6,152.9L68.6,152.9z"/>
	<path class="st12" d="M76.4,156.2l-2.1,0.4L76.4,156.2z"/>
	<path class="st12" d="M70.1,157.4c-0.3-0.8-0.6-1.5-0.8-2.3C69.5,155.9,69.8,156.6,70.1,157.4z"/>
	<path class="st12" d="M75.5,152.9L75.5,152.9c0.3,1,0.5,1.8,0.7,2.4C76,154.7,75.8,153.9,75.5,152.9z"/>
	<path class="st12" d="M76.4,156c0,0.1,0,0.1,0,0.2C76.4,156.1,76.4,156.1,76.4,156z"/>
	<path class="st12" d="M76.4,156.2L76.4,156.2L76.4,156.2c0-0.1,0-0.2-0.1-0.2l0,0c0-0.2-0.1-0.4-0.2-0.7l0,0
		c-0.2-0.6-0.4-1.4-0.7-2.4h-6.9l0,0c0.2,0.7,0.5,1.5,0.7,2.2c0.3,0.8,0.5,1.5,0.8,2.3c0,0,0,0,0,0.1l4.2-0.8L76.4,156.2L76.4,156.2
		z"/>
	<path class="st12" d="M64.6,155.2c0,0.2,0.1,0.4,0.1,0.5C64.7,155.6,64.6,155.4,64.6,155.2z"/>
	<path class="st12" d="M64.2,152.9L64.2,152.9c0.1,0.8,0.2,1.6,0.4,2.3C64.5,154.5,64.3,153.7,64.2,152.9z"/>
	<path class="st12" d="M64.9,156.7c0,0.1,0,0.2,0.1,0.3C64.9,156.9,64.9,156.8,64.9,156.7z"/>
	<path class="st12" d="M33.4,156.3c0-0.5,0.1-0.9,0.1-1.4C33.5,155.4,33.4,155.8,33.4,156.3z"/>
	<path class="st12" d="M33.8,152.9c-0.1,0.6-0.2,1.2-0.3,1.9C33.6,154.1,33.7,153.5,33.8,152.9L33.8,152.9z"/>
	<path class="st12" d="M64.7,156c0,0.1,0,0.3,0.1,0.4C64.8,156.3,64.7,156.1,64.7,156z"/>
	<path class="st12" d="M46.5,157.4c-0.5-0.6-1-1.4-1.6-2.1c-0.6-0.7-0.8-1.5-0.9-2.4H33.8c-0.1,0.6-0.2,1.2-0.3,1.9
		c0,0.1,0,0.1,0,0.2c-0.1,0.5-0.1,0.9-0.1,1.4c0,0.1,0,0.2,0,0.3c0,0.3,0,0.5,0,0.8L46.5,157.4z"/>
	<path class="st12" d="M52.2,157.5h3.2c0.6-0.8,1-1.3,1-1.3s0.3,0.5,0.8,1.3l7.8,0.1v-0.1c0-0.1,0-0.3-0.1-0.4c0-0.1,0-0.2-0.1-0.3
		c0-0.1,0-0.2-0.1-0.3c0-0.1,0-0.3-0.1-0.4c0-0.1,0-0.1,0-0.2c0-0.2-0.1-0.4-0.1-0.5c0,0,0,0,0-0.1c-0.1-0.7-0.2-1.5-0.4-2.3H51.8
		C52.1,154.4,52.2,156,52.2,157.5z"/>
</g>
<path class="st13" d="M207.4,89.6l4,3.1h26.1c0.9,0,1.8-0.4,2.5-1l4-3.7"/>
<path class="st14" d="M78.2,233l-54.9,0.1c-5.4,0-9.7-4.3-9.8-9.7l-0.1-57.9l74.4-0.2l0.1,57.9C87.9,228.6,83.6,233,78.2,233z"/>
<ellipse transform="matrix(1 -2.422210e-03 2.422210e-03 1 -0.4576 0.1238)" class="st15" cx="50.9" cy="189" rx="6.3" ry="6.3"/>
<path class="st16" d="M31.7,167.2v-1.7h-5v1.7H22v-1.7h-8.6l0.1,47.3c0,0,0,2.8,0,3.5v7c0,5,3.8,9.1,8.6,9.6L22,211.5l4.6-2.8
	l0.1,24.3h5l-0.1-27.3l16-9.7c0.9,0.5,2,0.8,3.1,0.8c3.5,0,6.3-2.8,6.3-6.3s-2.8-6.3-6.3-6.3s-6.3,2.8-6.3,6.3c0,1.1,0.3,2.1,0.8,3
	l-13.6,8.2l-0.1-32.2h47.9H88V167H31.7V167.2z M22.1,207.7l-0.1-38h4.6l0.1,35.2L22.1,207.7z"/>
<path class="st8" d="M155.7,26.5c-1.1,0-2.1,0-3.1,0.1c0.1-0.1,0.1-0.2,0.1-0.3c-2.4-0.1-5-0.5-7.7-1c-0.7,0.1-1.5,0.2-2.3,0.3
	c-2.5,0.4,3.6,10.8-5.6,7.6c-13.1-4.5-19.5,5-28.8,2.7c-1.6-0.4-7.4-1.8-11.5-3.2c-1.6-0.6-2.9-2.2-3.6-2.8
	c-1.7-1.4-5.7-4.5-8.1-0.3c-1.8,3.1,2.3,4.4,4.2,4.7c1.5,0.2,11.9,0.1,17.9,1.9c0.1,0,0.3,0.1,0.4,0.1h0.1l0,0
	c0.6,0.4,0.2,1.2-0.9,1.9c-2,1.2-4.7,2.2-6.4,2.4c-2.9,0.3-7.7,3.4-9.2,9.9c-0.1,0.5-0.2,0.9-0.4,1.2c0,0.1-0.1,0.1-0.1,0.2l17,25.9
	l0,0c3.3-4.7,14.9-9.9,20.2-8.5c5.8,1.6,9-4.4,9.5-5.9c0.6-1.5,2.1,6.3,4.5,8.1c2.3,1.9,6.1-0.6,6.2-2.6c0-0.4,0.4-1.4,1-2.8
	c2.6,0.2,5.1,0.4,7.5,0.7L155.7,26.5z M103.8,54.7c1.2,0,2.2,1,2.2,2.2s-1,2.2-2.2,2.2s-2.2-1-2.2-2.2
	C101.6,55.7,102.6,54.7,103.8,54.7z"/>
<path class="st13" d="M138.3,33.3c-0.8,0.2-1.2,0-1.8-0.2c-1.1-0.3-3.3-1.1-6.9-1.1v37.5c4.5,0,7.1-4.8,7.6-6.2
	c0.2-0.6,0.6,0.1,1,1.4L138.3,33.3L138.3,33.3z"/>
<g>
	<polygon class="st17" points="225.6,44.5 201.3,44.4 201.3,89.7 225.6,89.7 	"/>
	<polygon class="st18" points="176.4,44.3 176.4,89.7 201.3,89.7 201.3,44.4 	"/>
</g>
<g class="st19">
	<polygon class="st10" points="78.7,233 75.7,233 75.7,169.7 79.5,169.7 79.5,232.9 	"/>
</g>
<path class="st7" d="M101.8,205.3c0,7.4-6,13.4-13.4,13.4s-13.4-6-13.4-13.4s13.4-22.4,13.4-22.4S101.8,197.9,101.8,205.3z"/>
<g>
	<path class="st20" d="M239.5,44.6h-2v45.1h-3.4V44.6h-8.6v45.2h15c0.3,0,0.6,0,1-0.1h-1.9V44.6H239.5z"/>
	<path class="st20" d="M245.9,46.8v40.8c1.8-1.7,3-4.2,3-7.1l0.1-26.2C249.1,51.2,247.8,48.6,245.9,46.8z"/>
	<polygon class="st21" points="237.5,44.5 234.1,44.5 234.1,44.6 237.5,44.6 	"/>
	<polygon class="st20" points="237.5,89.7 237.5,44.6 234.1,44.6 234.1,89.7 	"/>
	<polygon class="st21" points="237.5,89.7 237.5,44.6 234.1,44.6 234.1,89.7 	"/>
	<path class="st20" d="M240.6,44.6h-1.1v45.1h1.9c1.7-0.2,3.3-0.9,4.5-2.1V46.8C244.5,45.4,242.6,44.6,240.6,44.6z"/>
	<path class="st22" d="M240.6,44.6h-1.1v45.1h1.9c1.7-0.2,3.3-0.9,4.5-2.1V46.8C244.5,45.4,242.6,44.6,240.6,44.6z"/>
</g>
<g class="st11">
	<path class="st12" d="M83.6,189.1c-3.8,5-8.3,11.9-8.3,16.2c0,6,3.9,11.1,9.4,12.8c-1.3-1.7-2.5-3.6-3.3-5.7
		C78.9,206.5,78.8,198.8,83.6,189.1z"/>
</g>
<g>
	<g>
		<path class="st23" d="M170.6,277.3c-0.4,0-0.8-0.2-1-0.6c-0.4-0.6-0.2-1.3,0.4-1.7l8.4-5.5c1.9-1.2,2.4-3.7,1.2-5.6l-14.9-22.8
			c-0.9-1.4-1.3-3.2-0.9-4.9c0.4-1.7,1.3-3.1,2.8-4.1l13.3-8.7c3-1.9,7-1.1,8.9,1.9l5.4,8.2c0.4,0.6,0.2,1.3-0.4,1.7
			c-0.6,0.4-1.3,0.2-1.7-0.4l-5.4-8.2c-1.2-1.9-3.7-2.4-5.6-1.2l-13.3,8.7c-0.9,0.6-1.5,1.5-1.7,2.5c-0.2,1.1,0,2.1,0.6,3l14.9,22.8
			c1.9,3,1.1,7-1.9,8.9l-8.4,5.5C171.1,277.2,170.9,277.3,170.6,277.3z"/>
	</g>
	<path class="st4" d="M207,229.6l22.7,34.8c2.6,3.9,1.4,9.2-2.5,11.8l-9.8,6.4c-3.9,2.6-9.2,1.4-11.8-2.5L183,245.3
		c-2.6-3.9-1.4-9.2,2.5-11.8l9.8-6.4C199.2,224.6,204.4,225.7,207,229.6z"/>
	<path class="st24" d="M182.6,236.5l31.2,47.4c-2.9,0.3-6.2-0.9-8.1-3.7l-22.8-34.8C180.9,242.4,181,239.1,182.6,236.5z"/>
	<path class="st25" d="M198.4,225.9l31.4,47.7c1.7-2.7,1.8-6.3-0.1-9.1L207,229.7C205.1,226.7,201.7,225.3,198.4,225.9z"/>
	<path class="st14" d="M151.5,294.3l-5.4-8.3c-0.7-1.1-0.4-2.6,0.7-3.3l18.7-12.2c3.4-2.2,8-1.3,10.2,2.2l0,0
		c2.2,3.4,1.3,8-2.2,10.2L154.8,295C153.7,295.7,152.2,295.4,151.5,294.3z"/>
</g>
<polygon class="st13" points="185,89.7 231.2,44.4 226.6,44.3 178.9,89.8 "/>
<g>
	<polygon class="st26" points="182.8,25.1 182.9,25 182.9,25 164.9,41.3 195.4,74.7 204.6,66.3 204.6,48.9 	"/>
	<polygon class="st26" points="207,51.5 207,64.1 211.3,60.2 211.3,56.2 	"/>
	<polygon class="st27" points="146.4,58 177,91.5 195.4,74.7 164.9,41.3 	"/>
	<polygon class="st28" points="211.3,56 211.3,21.3 207,16.6 207,51.4 	"/>
	<path class="st28" d="M204.6,14.5c-3.4-2.2-7.7-2.1-10.5,0.4L182.9,25l21.7,23.8L204.6,14.5L204.6,14.5z"/>
	<path class="st28" d="M224.4,35.8l-6.1-6.7v24.8l6-5.5C227.8,45.2,227.9,39.7,224.4,35.8z"/>
	<polygon class="st28" points="204.6,48.9 204.6,48.8 182.9,25 182.8,25.1 	"/>
	<polygon class="st28" points="207,51.5 211.3,56.2 211.3,56 207,51.4 	"/>
	<polygon class="st26" points="204.6,48.9 204.6,66.3 207,64.1 207,51.5 	"/>
	<polygon class="st29" points="204.6,48.9 204.6,66.3 207,64.1 207,51.5 	"/>
	<path class="st28" d="M207,51.4V16.6l-0.2-0.2c-0.7-0.7-1.4-1.3-2.2-1.8v34.3L207,51.4z"/>
	<path class="st29" d="M207,51.4V16.6l-0.2-0.2c-0.7-0.7-1.4-1.3-2.2-1.8v34.3L207,51.4z"/>
	<polygon class="st28" points="204.6,48.8 204.6,48.9 207,51.5 207,51.4 	"/>
	<polygon class="st29" points="204.6,48.8 204.6,48.9 207,51.5 207,51.4 	"/>
	<polygon class="st26" points="213.3,58.3 213.3,58.4 211.3,56.2 211.3,60.2 	"/>
	<polygon class="st30" points="213.3,58.3 213.3,58.4 211.3,56.2 211.3,60.2 	"/>
	<polygon class="st28" points="211.3,21.3 211.3,56 213.3,58.3 218.3,53.8 218.3,29 	"/>
	<polygon class="st30" points="211.3,21.3 211.3,56 213.3,58.3 218.3,53.8 218.3,29 	"/>
	<polygon class="st28" points="213.3,58.4 213.3,58.3 211.3,56 211.3,56.2 	"/>
	<polygon class="st30" points="213.3,58.4 213.3,58.3 211.3,56 211.3,56.2 	"/>
</g>
<polyline class="st13" points="182.3,25.7 182,86.9 179.1,89.6 179.4,28.2 "/>
<g>
	<polygon class="st31" points="136.6,28.4 136.5,52.7 179.3,52.7 179.3,28.4 	"/>
	<polygon class="st32" points="136.3,77.6 179.3,77.6 179.3,52.7 136.5,52.7 	"/>
	<path class="st33" d="M179.3,13.5c0-4.7-3.7-8.5-8.7-8.5l-24.8-0.1c-5,0-9.1,3.8-9.1,8.4l-0.1,15.2h42.8L179.3,13.5L179.3,13.5z"/>
</g>
<path class="st34" d="M178.5,90.4l-17.4,16.5c-1.9,1.8-4.8,1.8-6.6,0l-17.3-16.5c-0.5-0.5-0.8-1.2-0.8-1.9v-11h43v11
	C179.3,89.2,179,89.9,178.5,90.4z"/>
<path class="st16" d="M144.6,77.5l0.1,12.2l13.5,15.4l0.1,3.1c0,0-0.2,0-0.4,0c-0.1,0-0.3,0-0.5,0c-0.4,0-0.8-0.1-1.2-0.2
	c-0.7-0.2-1.5-0.8-1.5-0.8l-17.7-17c-0.4-0.4-0.6-0.9-0.6-1.5V77.5H144.6z"/>
<path class="st30" d="M171.1,5c4,0.4,8.2,3.5,8.2,8.9v63.6h-8.2V5z"/>
<circle class="st16" cx="157.8" cy="91.5" r="3"/>
<circle class="st7" cx="85.5" cy="142.7" r="2.7"/>
<circle class="st8" cx="116.5" cy="26.3" r="3.8"/>
<circle class="st9" cx="31.2" cy="74.7" r="3.2"/>
<circle class="st4" cx="191.1" cy="209.1" r="3.2"/>
<path class="st35" d="M95.9,198.6c0,0,3.9,6.2,1.7,11.6"/>
<g>
	<ellipse transform="matrix(1 -2.422210e-03 2.422210e-03 1 -0.4576 0.1238)" class="st36" cx="50.9" cy="189" rx="6.3" ry="6.3"/>
</g>
<g>
	<path class="st37" d="M5.8,217.8c-0.6,0-1.1-0.3-1.4-0.8c-0.5-0.8-0.2-1.8,0.6-2.3l45-27.1c0.8-0.5,1.8-0.2,2.3,0.6
		s0.2,1.8-0.6,2.3l-45,27.1C6.4,217.7,6.1,217.8,5.8,217.8z"/>
</g>
<path class="st29" d="M88.2,183.1v35.6c0.1,0,0.1,0,0.2,0c7.4,0,13.4-6,13.4-13.4s-13.4-22.4-13.4-22.4S88.4,183,88.2,183.1z"/>
<path class="st24" d="M182.6,236.5c0,0,1.1-1.9,2.8-3c0,0-2.1,4,0.5,8l-1.3,1.2"/>
<path class="st24" d="M213.5,283.9c0,0,2.2-0.2,3.9-1.3c0,0-4.5,0.2-7-3.9l-1.7,0.6"/>
<path class="st25" d="M229.8,273.6c0,0-1.2,1.7-2.9,2.8c0,0,2.1-3.7-0.5-7.8l1.3-1.2"/>
<path class="st25" d="M198.4,225.9c0,0-2.2,0.4-3.8,1.6c0,0,4.3-0.4,7.1,3.5l1.8-0.8"/>
<path class="st16" d="M175,279.6l-18.7,12.2c-1.1,0.7-3,1.4-3.8,0.3l-4.9-7.8l0,0c-0.3-0.5-0.4-1.1-0.3-1.6l0.1-0.4l-0.6,0.4
	c-1.1,0.7-1.4,2.2-0.7,3.3l5.4,8.3c0.7,1.1,2.2,1.4,3.3,0.7l18.7-12.2c2.6-1.7,3.7-4.6,3.2-7.5C176.6,276.8,176.1,278.9,175,279.6z"
	/>
<rect x="188.8" y="228.7" transform="matrix(0.8378 -0.546 0.546 0.8378 -94.5035 140.9592)" class="st38" width="2.4" height="1.6"/>
<circle class="st31" cx="203.2" cy="105.3" r="3.3"/>
<circle class="st3" cx="225.3" cy="165" r="2"/>
<path class="st9" d="M85.2,109.7c0-0.7-0.2-1.3-0.5-1.8l0,0c-0.2-0.3-0.2-0.7,0-1l0,0c0.3-0.5,0.5-1.1,0.5-1.8
	c-0.7,0-1.3,0.2-1.8,0.5l0,0c-0.3,0.2-0.7,0.2-1,0l0,0c-0.5-0.3-1.1-0.5-1.8-0.5c0,0.7,0.2,1.3,0.5,1.8l0,0c0.2,0.3,0.2,0.7,0,1l0,0
	c-0.3,0.5-0.5,1.1-0.5,1.8c0.7,0,1.3-0.2,1.8-0.5l0,0c0.3-0.2,0.7-0.2,1,0l0,0C83.9,109.5,84.5,109.7,85.2,109.7z"/>
<path class="st4" d="M213.2,205.5c0-0.4-0.1-0.8-0.3-1.1l0,0c-0.1-0.2-0.1-0.4,0-0.6l0,0c0.2-0.3,0.3-0.7,0.3-1.1
	c-0.4,0-0.8,0.1-1.1,0.3l0,0c-0.2,0.1-0.4,0.1-0.6,0l0,0c-0.3-0.2-0.7-0.3-1.1-0.3c0,0.4,0.1,0.8,0.3,1.1l0,0c0.1,0.2,0.1,0.4,0,0.6
	l0,0c-0.2,0.3-0.3,0.7-0.3,1.1c0.4,0,0.8-0.1,1.1-0.3l0,0c0.2-0.1,0.4-0.1,0.6,0l0,0C212.4,205.4,212.8,205.5,213.2,205.5z"/>
<path class="st0" d="M281,80c0-0.4-0.1-0.8-0.3-1.1l0,0c-0.1-0.2-0.1-0.4,0-0.6l0,0c0.2-0.3,0.3-0.7,0.3-1.1c-0.4,0-0.8,0.1-1.1,0.3
	l0,0c-0.2,0.1-0.4,0.1-0.6,0l0,0c-0.3-0.2-0.7-0.3-1.1-0.3c0,0.4,0.1,0.8,0.3,1.1l0,0c0.1,0.2,0.1,0.4,0,0.6l0,0
	c-0.2,0.3-0.3,0.7-0.3,1.1c0.4,0,0.8-0.1,1.1-0.3l0,0c0.2-0.1,0.4-0.1,0.6,0l0,0C280.2,79.9,280.6,80,281,80z"/>
<circle class="st1" cx="295.2" cy="103.9" r="2"/>
<circle class="st4" cx="283" cy="222.2" r="2.5"/>
<path class="st34" d="M91.4,167.5l-81.1,0.2c-1.3,0-2.3-1-2.3-2.3v-6.7c0-1.3,1-2.3,2.3-2.3l81.1-0.2c1.3,0,2.3,1,2.3,2.3v6.7
	C93.7,166.4,92.6,167.5,91.4,167.5z"/>
<g class="st39">
	<rect x="86.5" y="156.1" class="st10" width="3.8" height="11.4"/>
</g>
<g class="st40">
	<rect x="18.9" y="156.3" width="2" height="11.4"/>
</g>
<g class="st40">
	<rect x="11.8" y="156.3" width="3.4" height="11.4"/>
</g>
<path class="st7" d="M61.8,156v6.8c0,1.7,1.2,3,2.6,3H65c1.4,0,2.6-1.3,2.6-3V156"/>
</svg>
